<svg fill="#FFC107" xmlns="http://www.w3.org/2000/svg" xmlns:xlink="http://www.w3.org/1999/xlink" version="1.1" x="0px" y="0px" viewBox="0 0 100 100" style="enable-background:new 0 0 100 100;" xml:space="preserve"><g><path d="M50,32.5c-9.6,0-17.5,7.9-17.5,17.5S40.4,67.5,50,67.5S67.5,59.6,67.5,50S59.6,32.5,50,32.5z M50,64.5   c-8,0-14.5-6.5-14.5-14.5S42,35.5,50,35.5S64.5,42,64.5,50S58,64.5,50,64.5z"/><path d="M82.7,43.4l-4.2-1.8c-1-0.4-1.8-1.2-2.3-2.2l0-0.2c-0.4-1.1-0.4-2.3,0-3.3l1.7-4.2c0.9-1.4,0.6-3.2-0.5-4.3   l-4.7-4.7c-1.1-1.1-2.9-1.3-4.2-0.5l-4.3,1.7c-2.3,0.9-4.8-0.2-5.7-2.4l-1.8-4.1c-0.3-1.6-1.7-2.7-3.3-2.7c0,0,0,0,0,0h-6.7   c0,0,0,0,0,0c-1.6,0-3,1.1-3.3,2.6l-1.8,4.2c-1,2.2-3.5,3.2-5.7,2.4l-4.2-1.7c-1.3-0.9-3.1-0.7-4.3,0.5l-4.7,4.7   c-1.1,1.1-1.3,2.9-0.5,4.2l1.7,4.3c0.9,2.3-0.2,4.8-2.4,5.7l-4.1,1.8c-1.6,0.3-2.7,1.7-2.7,3.3v6.7c0,1.6,1.1,3,2.6,3.3l4.2,1.8   c2.2,1,3.2,3.5,2.4,5.7l-1.7,4.2c-0.9,1.4-0.7,3.1,0.5,4.3l4.7,4.7c1.1,1.1,2.9,1.3,4.2,0.5l4.3-1.7c2.3-0.9,4.8,0.2,5.7,2.4   l1.8,4.1c0.3,1.6,1.7,2.7,3.3,2.7c0,0,0,0,0,0h6.7c0,0,0,0,0,0c1.6,0,3-1.1,3.3-2.6l1.8-4.2c1-2.2,3.5-3.2,5.7-2.4l4.2,1.7   c1.3,0.9,3.1,0.7,4.3-0.5l4.7-4.7c1.1-1.1,1.3-2.9,0.5-4.2l-1.7-4.3c-0.9-2.3,0.2-4.8,2.4-5.7l4.1-1.8c1.6-0.3,2.7-1.7,2.7-3.3   v-6.7C85.4,45.1,84.3,43.7,82.7,43.4z M73.4,65.3l1.8,4.4l0.1,0.3c0.1,0.2,0.1,0.4,0,0.5l-4.7,4.7c-0.1,0.1-0.4,0.2-0.5,0l-4.7-1.9   c-3.7-1.5-7.9,0.3-9.6,4l-1.9,4.3L53.7,82c0,0.2-0.2,0.3-0.4,0.3h0h-6.7c0,0,0,0,0,0c-0.2,0-0.4-0.1-0.4-0.3l-2-4.7   c-1.6-3.7-5.8-5.5-9.6-4l-4.4,1.8l-0.3,0.1c-0.2,0.1-0.4,0.1-0.5,0l-4.7-4.7c-0.1-0.1-0.2-0.4,0-0.5l1.9-4.7c1.4-3.7-0.3-7.9-4-9.6   l-4.4-1.9L18,53.7c-0.2,0-0.3-0.2-0.3-0.4v-6.7c0-0.2,0.1-0.4,0.3-0.4l4.7-2c3.7-1.6,5.4-5.8,4-9.6l-1.8-4.4l-0.1-0.3   c-0.1-0.2-0.1-0.4,0-0.5l4.7-4.7c0.1-0.1,0.4-0.2,0.5,0l4.7,1.9c3.7,1.4,7.9-0.3,9.6-4l1.9-4.4l0.1-0.3c0-0.2,0.2-0.3,0.4-0.3   c0,0,0,0,0,0h6.7h0c0.2,0,0.4,0.1,0.4,0.3l2,4.7c1.6,3.7,5.8,5.4,9.6,4l4.4-1.8l0.3-0.1c0.2-0.1,0.4-0.1,0.5,0l4.7,4.7   c0.1,0.1,0.2,0.4,0,0.5l-1.9,4.7c-0.7,1.7-0.7,3.7,0,5.4l0,0.2c0.7,1.8,2.1,3.2,3.9,4l4.4,1.9l0.3,0.1c0.2,0,0.3,0.2,0.3,0.4l0,6.7   c0,0.2-0.1,0.4-0.3,0.4l-4.7,2C73.7,57.4,71.9,61.6,73.4,65.3z"/></g></svg>